<svg width="1440" height="960" viewBox="0 0 1440 960" fill="none" xmlns="http://www.w3.org/2000/svg">
  <rect width="1440" height="960" fill="#07080c"/>
  <defs>
    <linearGradient id="metal" x1="0" y1="0" x2="1" y2="1">
      <stop offset="0" stop-color="#f6f7fb"/>
      <stop offset="0.22" stop-color="#6f7885"/>
      <stop offset="0.5" stop-color="#1b2028"/>
      <stop offset="0.75" stop-color="#c9d0d7"/>
      <stop offset="1" stop-color="#3b414b"/>
    </linearGradient>
    <linearGradient id="darkMetal" x1="0" y1="0" x2="1" y2="1">
      <stop offset="0" stop-color="#2c3038"/>
      <stop offset="0.48" stop-color="#08090d"/>
      <stop offset="1" stop-color="#727985"/>
    </linearGradient>
    <filter id="softShadow" x="-20%" y="-20%" width="140%" height="140%">
      <feDropShadow dx="0" dy="22" stdDeviation="24" flood-color="#000" flood-opacity="0.5"/>
    </filter>
    <filter id="blurGlow" x="-40%" y="-40%" width="180%" height="180%">
      <feGaussianBlur stdDeviation="18"/>
    </filter>
  </defs>
  <g opacity="0.95" filter="url(#softShadow)">
    <path d="M-58 169C170 69 352 54 488 122C601 178 615 270 754 310C913 356 1039 265 1223 272C1347 277 1453 329 1517 380" stroke="url(#metal)" stroke-width="72" stroke-linecap="round"/>
    <path d="M-77 657C117 540 286 523 431 592C539 643 584 735 730 764C894 797 1010 685 1187 697C1326 706 1435 785 1498 853" stroke="url(#metal)" stroke-width="88" stroke-linecap="round"/>
    <path d="M109 386C222 230 377 177 536 243C675 300 693 429 846 463C985 494 1100 398 1238 428C1346 452 1417 541 1462 627" stroke="url(#darkMetal)" stroke-width="104" stroke-linecap="round"/>
  </g>
  <g opacity="0.92">
    <path d="M80 260L245 189L305 326L140 397L80 260Z" fill="#ff415b"/>
    <path d="M1100 782C1161 711 1250 686 1334 720C1391 743 1426 787 1447 837" stroke="#ff6b75" stroke-width="22" stroke-linecap="round"/>
    <path d="M-50 850C54 780 149 797 245 883C298 931 349 961 410 969" stroke="#8276ff" stroke-width="70" stroke-linecap="round"/>
  </g>
  <g opacity="0.42" filter="url(#blurGlow)">
    <ellipse cx="350" cy="240" rx="180" ry="82" fill="#d8e1ef"/>
    <ellipse cx="800" cy="604" rx="196" ry="95" fill="#9ca7b5"/>
    <ellipse cx="1115" cy="300" rx="185" ry="72" fill="#ffffff"/>
    <ellipse cx="1050" cy="810" rx="150" ry="78" fill="#ff8b91"/>
  </g>
</svg>
